<svg width="595" height="420" xmlns="http://www.w3.org/2000/svg" xmlns:svg="http://www.w3.org/2000/svg">
    <desc>
        Design by Chaos Cola https://bsky.app/profile/chaos-cola.com
    </desc>
    
    <defs>
		<style>
			rect {
				fill: #fff;
			}
            rect.background {
				fill: #000;
            }
			line, ellipse {
				stroke: #000;
			}
		</style>
	</defs>

    <rect class="background" width="100%" height="100%"/>
    
	<rect x="30" y="160" width="25" height="240"></rect>
	<rect x="60" y="190" width="25" height="210"></rect>
	<rect x="90" y="240" width="25" height="160"></rect>
	<rect x="120" y="300" width="25" height="100"></rect>
	<rect x="150" y="375" width="25" height="25"></rect>
	<rect x="180" y="375" width="25" height="25"></rect>
	<rect x="210" y="375" width="25" height="25"></rect>
	<rect x="240" y="300" width="25" height="100"></rect>
	<rect x="270" y="265" width="25" height="135"></rect>
	<rect x="300" y="245" width="25" height="155"></rect>
	<rect x="330" y="220" width="25" height="180"></rect>
	<rect x="360" y="190" width="25" height="210"></rect>
	<rect x="390" y="15" width="25" height="385"></rect>
	<rect x="420" y="35" width="25" height="365"></rect>
	<rect x="450" y="70" width="25" height="330"></rect>
	<rect x="480" y="70" width="25" height="330"></rect>
	<rect x="510" y="35" width="25" height="160"></rect>
	<rect x="540" y="15" width="25" height="155"></rect>

	<line stroke-width="10" x1="432" y1="125" x2="522" y2="125"></line>
	<ellipse stroke-width="10" cx="432" cy="130" ry="30" rx="30"></ellipse>
	<ellipse stroke-width="10" cx="522" cy="130" ry="30" rx="30"></ellipse>
</svg>